<?xml version="1.0" encoding="utf-8"?><!-- Uploaded to: SVG Repo, www.svgrepo.com, Generator: SVG Repo Mixer Tools -->
<svg fill="#000000" width="800px" height="800px" viewBox="0 0 24 24" id="thunder-2" data-name="Flat Color" xmlns="http://www.w3.org/2000/svg" class="icon flat-color"><path id="primary" d="M18.86,11.27l-3.23-8A2,2,0,0,0,13.72,2H9.38a2.06,2.06,0,0,0-1.71.9,2,2,0,0,0-.19,1.84L8.81,8H7.05A2,2,0,0,0,5.18,9.18a2,2,0,0,0,.29,2.1l8.8,10.37A1,1,0,0,0,15,22a1.12,1.12,0,0,0,.47-.11,1,1,0,0,0,.5-1.15L14.19,14H17a2.06,2.06,0,0,0,1.71-.9A2,2,0,0,0,18.86,11.27Z" style="fill: rgb(0, 0, 0);"></path></svg>